<svg id="Layer_1" data-name="Layer 1" xmlns="http://www.w3.org/2000/svg" viewBox="0 0 551.47 88.08"><defs><style>.cls-1{fill:#fff}</style></defs><title>Startupsaunatext_white</title><path class="cls-1" d="M22.32 0c8.62 0 15 .86 18.58 2l-2.1 12.26a53 53 0 0 0-14.56-1.63c-6.51 0-9.38 2.68-9.38 6.7 0 3.54 1.54 5.65 8 7.95l5.46 1.92c12 4.31 16.18 8.24 16.18 18.48 0 13.41-8.14 20.49-25.38 20.49-9.1 0-14.94-1.15-18.48-2.68l1.85-12.15a64 64 0 0 0 16.66 2.2c7.28 0 10.54-1.82 10.54-7.18 0-3.06-2-4.6-8.33-6.8L15 39.36C2.88 35.14 0 29.5 0 20.11 0 7 9.29 0 22.32 0m57.52 66.75c-1.72.67-4.59 1.24-9.48 1.24-11.78 0-17.81-5.17-17.81-16.57V27h-7.38v-9.76l7.66-1.53V4.88L67 3.16v12.25h12.07V27H67v22.89c0 4.89 1.91 5.84 5.46 5.84a33.87 33.87 0 0 0 6.7-.39l.67 11.4zm25.64-19.92c-7.57.19-8.81 2.49-8.81 5.65 0 3.74 1.63 5.27 6.7 5.27 4.7 0 7.28-1.53 9.29-3.35a35.5 35.5 0 0 1-.19-4.22v-3.54l-7 .19zm20.68-14.56v35.34h-10.63a29.79 29.79 0 0 1-2.11-5c-3.16 4.31-7.28 5.55-15.32 5.55-9 0-15.32-4.5-15.32-15.13 0-9.48 6.13-15.23 20-15.8l9.29-.39v-3.61c0-3.93-2.2-6-8-6a79.17 79.17 0 0 0-15.71 1.63L87 17.23c3.73-1.34 10.34-2.39 18.39-2.39 12.07 0 20.78 3.83 20.78 17.43m38.35-2.77a52 52 0 0 0-5.36-.29 37.21 37.21 0 0 0-11.49 1.72v36.68h-14.56v-52.2h11.39a23.08 23.08 0 0 1 2 6.8c4-3.93 8.81-7.57 15.51-7.57a19 19 0 0 1 2.5.1V29.5zm4.98-24.55L184 3.16v12.25h12V27h-12v22.89c0 4.89 1.92 5.84 5.46 5.84a34.1 34.1 0 0 0 6.7-.38l.67 11.4c-1.72.67-4.6 1.24-9.48 1.24-11.78 0-17.81-5.17-17.81-16.57V4.95zm76.2 10.46v52.2h-11.3a34.61 34.61 0 0 1-1.63-4c-3 2.78-7.66 4.78-13.79 4.78-12.64 0-17.24-7.08-17.24-17.24V15.41h14.66v33.71c0 4.7 1 7 6.51 7 3.83 0 7-1 8.52-2-.1-2.21-.19-5.37-.19-8.24V15.41zm27.87 11.76a37 37 0 0 0-5.46.38v27.78a29.91 29.91 0 0 0 4 .19c9.1 0 13.5-3.92 13.5-15.32 0-10.05-4.7-13-12.07-13m-19.83-9c5-2 12.17-3.45 20.59-3.45 17.24 0 26.14 8.62 26.14 25.28 0 17.62-9.1 27.68-26 27.68a58.51 58.51 0 0 1-6.32-.29v19.03l-14.37 1.63V18.17zM348.18.08c8.81 0 13.6 1 16 1.82l-1.05 6.41a57.46 57.46 0 0 0-14-1.43c-10.64 0-14.27 3.64-14.27 11.3 0 5.85 1.91 8.72 10.25 11.5l7.89 2.67c10.34 3.45 14.75 7 14.75 17 0 12.83-7.66 18.86-23.46 18.86-9.1 0-14.36-1.24-16.95-2.2l1-6.51a66.72 66.72 0 0 0 16 1.82c12.07 0 15.61-4.12 15.61-12 0-5.65-2.11-7.86-10.53-10.53l-7.85-2.59c-10.44-3.35-14.36-8.14-14.36-18.1 0-12.07 7.56-18.09 21-18.09m44.45 44.59c-7.75.2-11.78 2.78-11.78 8.91 0 6.51 3.07 8.91 10.43 8.91a19.9 19.9 0 0 0 13.22-4.5v-13.6l-11.88.28zm19.06-13.88v37h-5.27a29.71 29.71 0 0 1-1.24-4.5c-3.35 3.16-7.95 5.26-16.09 5.26-9.57 0-15.61-4.31-15.61-14.55s7.38-14.84 18.29-15.13l12.64-.29v-6.8c0-6.89-2.78-9.67-11.59-9.67a78.47 78.47 0 0 0-14.66 1.34l-.76-5.94c2.59-.86 8.13-1.92 15.9-1.92 11 0 18.39 3.45 18.39 15.23m47.21-14.68v51.62h-5.56a22.63 22.63 0 0 1-1.05-4.41c-3.84 3.16-9.38 5.17-17 5.17-12.55 0-16.09-6.51-16.09-16.66V16.07h7.37v34.38c0 8.14 1.63 11.49 10.44 11.49A28.67 28.67 0 0 0 451.75 58c-.19-1.53-.19-5.65-.19-8V16.07zm7.99 51.61V18.75c4-1.82 12.07-3.45 22-3.45 11.78 0 18.19 3.35 18.19 14.46v37.92h-7.37V31.1c0-6.32-2.3-9.29-11.58-9.29a56.13 56.13 0 0 0-13.89 1.63v44.24zm65.49-23.08c-7.76.2-11.78 2.78-11.78 8.91 0 6.51 3.07 8.91 10.44 8.91a19.9 19.9 0 0 0 13.22-4.5v-13.6l-11.88.28zm19.06-13.88v37h-5.27a29.33 29.33 0 0 1-1.25-4.5c-3.35 3.16-8 5.26-16.1 5.26-9.57 0-15.6-4.31-15.6-14.55s7.37-14.84 18.28-15.13l12.65-.29v-6.8c0-6.89-2.77-9.67-11.59-9.67a78.61 78.61 0 0 0-14.66 1.34l-.76-5.94c2.59-.86 8.14-1.92 15.9-1.92 11 0 18.39 3.45 18.39 15.23"/></svg>